<svg xmlns="http://www.w3.org/2000/svg" width="60" height="60" viewBox="0 0 512 512"><g fill="#016938"><path d="M234 2.1c-47.7 4.1-92.7 21.4-132 50.7C87.2 63.9 63.9 87.2 52.8 102c-20.7 27.7-35.2 57.7-43.3 89.4-11.1 43.7-11.1 84.5 0 128.2 11.1 43.6 33.5 82.5 66.4 115.5 33 32.9 71.9 55.3 115.5 66.4 43.7 11.1 84.5 11.1 128.2 0 43.6-11.1 82.5-33.5 115.5-66.4 32.9-33 55.3-71.9 66.4-115.5 11.1-43.7 11.1-84.5 0-128.2-11.1-43.6-33.5-82.5-66.4-115.5-33-32.9-71.9-55.3-115.5-66.4-29.3-7.4-57.1-9.9-85.6-7.4zm89.5 93.7c3.3 1.2 6.4 2.7 6.9 3.2.7.7-25.8 1-75.7 1-42.2 0-76.7-.2-76.7-.6 0-.3 1.7-1.2 3.8-2.1 9.4-4.1 11.5-4.2 74.7-4 60.7.2 61 .2 67 2.5zm12.5 22.1c0 .4-3.4 14.3-7.6 30.7-4.2 16.5-8.3 32.6-9 35.9-2.3 10.7-15.4 61.9-16.4 64.2l-1 2.3h-95.9l-1-3.8c-.6-2-3.6-13.8-6.6-26.2-11.2-44.8-14.7-58.9-20.1-79.9-3-11.8-5.4-22.1-5.4-22.8 0-1.1 14.9-1.3 81.5-1.3 45.6 0 81.5.4 81.5.9zm-163.2 72.8c16.3 65.2 18.4 73 20.7 75l2.6 2.3h116.8l2.5-2.3c2.1-1.9 3.8-7.6 11.6-38.7 5.1-20.1 10.1-40.3 11.2-45 5.1-21 15.9-63.5 16.4-63.9 1.6-1.6 9.8 13.4 12.5 22.7 1.9 6.3 2.4 11.7 4.9 47.7.6 8.2 1.5 21.3 2.1 29 .5 7.7 1.4 20.1 1.9 27.5.5 7.4 1.4 21.1 2.1 30.5 2 29.3.4 38.7-8.7 52.6-5.4 8.1-10.1 12.6-18.5 17.2-14 7.6-8.2 7.2-95.9 7.2-86.4 0-82.5.3-95.5-6.4-12.6-6.4-23.8-20.1-27.9-34-1.8-6.3-2.1-25.2-.7-42.6.6-6.1 1.5-18.2 2.1-27 .6-8.8 1.5-22.1 2-29.5.5-7.4 1.4-20.5 2-29 2.7-39.8 3.7-45.2 10.7-57.2 4.1-7.1 5.3-8.8 6.2-8.8.4 0 8.9 32.7 18.9 72.7zM390 364c16.6 19.1 31.5 37.3 32.8 40 1.3 2.6 1.2 3.4-.1 6.3-3.1 6.5-8.8 9.5-14.3 7.7-3.3-1.1-12-10.4-29.1-31.1-3.3-4-9.3-11.2-13.2-15.8-3.9-4.7-7.1-8.7-7.1-9 0-.3 1.9-1.8 4.3-3.3 2.3-1.5 6.2-4.5 8.7-6.7l4.5-4.1 3 3.7c1.7 2 6.4 7.5 10.5 12.3zm-251.7-10.7c2.8 2.3 6.9 5.3 8.9 6.5l3.8 2.3-7.4 8.7c-20.5 24.2-31.5 37.2-34.9 41.4-4.5 5.6-9 7.5-14.1 5.8-5.4-1.7-7.1-4.3-7.1-10.8 0-5.7.1-5.8 8-15 4.4-5.2 9.3-11 11-13 1.6-2.1 6.8-8.2 11.5-13.7s9.7-11.5 11-13.3c1.3-1.7 2.7-3.2 3.2-3.2s3.2 1.9 6.1 4.3zm40.9 16.7c5.2 0 5.9 1 3.2 4.8l-1.5 2.2h146.2l-1.5-2.9c-.9-1.6-1.2-3.1-.9-3.5.4-.3 2.7-.6 5.2-.6s7.1-.7 10.1-1.5 6-1.5 6.5-1.5c2.3 0 19.9 35.4 19.9 40.1.1 7.4-7.2 13.1-13.8 10.9-4.2-1.4-6.6-4-10.6-11.8l-3.2-6.2H169.4l-3.9 7.5c-3.3 6.3-4.7 7.9-8.2 9.6-3.7 1.8-4.8 1.9-7.8.9-1.9-.6-4.4-2.5-5.6-4.2-3.7-5.1-2.9-8.8 5.3-24.8 4.2-8 8.5-16.4 9.6-18.6l2.1-4.2 6.8 1.9c3.7 1.1 8.9 1.9 11.5 1.9z"></path><path d="M227 164.1c-3.5.6-7.3 1.8-8.3 2.7-2 1.8-10.1 17.9-13.6 27-1.6 3.9-1.8 5.4-.8 5.7 3.5 1.1 20.1 3.6 21.2 3.2.7-.3 1.5-2.9 1.9-5.9 1.1-8.2 5.7-25.8 6.8-25.8.5 0 5.1 3.2 10.1 7l9 7.1 9.1-.3 9-.3 1.1-4.5c1.4-5.6 1.4-5.6 20.1-3.6 15 1.7 19 1.9 18.3 1.1-1.2-1.1-33.2-5.6-39.9-5.6-5.9.1-7.8.5-9.4 2-1.8 1.9-2 1.8-7.2-2.5-9.7-7.8-14.7-9.2-27.4-7.3zM205.5 288.5c-10.5 3.7-13.7 16.6-6.4 25 9.5 10.8 26.9 3.8 26.9-10.8 0-10.2-10.7-17.7-20.5-14.2zM293.8 288.2c-4.5 1.2-9.3 6.3-10.7 11.3-1 3.8 0 9.2 2.6 13.1 1.8 2.9 9 6.4 12.9 6.4 7.2-.1 15.3-8.5 15.4-15.9 0-9.7-10.6-17.5-20.2-14.9z"></path></g></svg>