<?xml version="1.0" encoding="utf-8"?>
<!-- Uploaded to: SVG Repo, www.svgrepo.com, Generator: SVG Repo Mixer Tools -->
<svg fill="#000000" height="800px" width="800px" version="1.1" id="Layer_1" xmlns="http://www.w3.org/2000/svg" xmlns:xlink="http://www.w3.org/1999/xlink" 
	 viewBox="0 0 128 128" xml:space="preserve">
<g>
	<polygon points="63.9,13.1 63.9,13.1 63.9,13.1 	"/>
	<path d="M86.8,99.3c6-1,12-7.3,12-14.9V28.3c0-7.9-6.7-15.2-15.7-15.2l-19.3,0l-19.4,0c-9.1,0-15.7,7.3-15.7,15.2v56.1
		c0,7.7,6,14,12,14.9l-18.1,27.2h10.4l12.9-19h17.7h0h0h17.7l12.9,19h10.4L86.8,99.3z M53.6,18.9c0-1.4,1.2-2.5,2.6-2.5h7.6h0h0h7.6
		c1.4,0,2.6,1.2,2.6,2.5v4.5c0,1.4-1.1,2.6-2.6,2.6h-7.6h0h0h-7.6c-1.4,0-2.6-1.2-2.6-2.6V18.9z M44.1,91.2c-3.8,0-6.9-3.1-6.9-6.9
		c0-3.8,3.1-6.9,6.9-6.9c3.8,0,6.9,3.1,6.9,6.9C51,88.1,47.9,91.2,44.1,91.2z M63.8,54.7L63.8,54.7H45c-4.3,0-7.9-3-7.8-7.8V36.8
		c0-4.2,2.7-7.9,7.8-7.9h18.8h0h18.8c5.1,0,7.8,3.7,7.8,7.9v10.1c0,4.9-3.5,7.8-7.8,7.8H63.8L63.8,54.7z M76.5,84.3
		c0-3.8,3.1-6.9,6.9-6.9c3.8,0,6.9,3.1,6.9,6.9c0,3.8-3.1,6.9-6.9,6.9C79.5,91.2,76.5,88.1,76.5,84.3z"/>
	<circle cx="58" cy="7.1" r="4.4"/>
	<circle cx="69.6" cy="7.1" r="4.4"/>
</g>
</svg>